<?xml version="1.0" encoding="UTF-8"?>
<svg width="512px" height="508px" viewBox="0 0 512 508" version="1.1" xmlns="http://www.w3.org/2000/svg" xmlns:xlink="http://www.w3.org/1999/xlink">
    <!-- Generator: Sketch 48.2 (47327) - http://www.bohemiancoding.com/sketch -->
    <title>Group 2</title>
    <desc>Created with Sketch.</desc>
    <defs></defs>
    <g id="Desktop-Copy-2" stroke="none" stroke-width="1" fill="none" fill-rule="evenodd" transform="translate(-167.000000, -192.000000)">
        <g id="Group-2" transform="translate(167.000000, 192.000000)" fill-rule="nonzero">
            <g id="shield">
                <rect id="Rectangle-path" fill="#FBB03B" transform="translate(95.241138, 412.477617) rotate(135.000000) translate(-95.241138, -412.477617) " x="77.2803099" y="358.595134" width="35.9216555" height="107.764967"></rect>
                <rect id="Rectangle-path" fill="#8C6239" transform="translate(63.534000, 444.224347) rotate(135.000000) translate(-63.534000, -444.224347) " x="36.5927585" y="426.26352" width="53.8824833" height="35.9216555"></rect>
                <polygon id="Shape" fill="#29ABE2" points="31.746 450.576 0 456.925 6.349 501.379 50.803 507.728 57.152 475.982"></polygon>
                <polygon id="Shape" fill="#CCCCCC" points="354.14 102.785 429.711 27.214 480.514 27.214 480.514 78.017 399.689 158.842 171.044 387.478 133.352 425.179 82.549 374.375 124.569 332.355"></polygon>
                <polyline id="Shape" fill="#B3B3B3" points="480.514 27.214 429.711 27.214 82.549 374.375 107.955 399.773 144.327 363.401 392.846 114.882 480.514 27.214"></polyline>
                <rect id="Rectangle-path" fill="#999999" x="429.711" y="27.214" width="50.803" height="50.803"></rect>
                <rect id="Rectangle-path" fill="#FBB03B" transform="translate(416.785680, 412.418570) rotate(135.000000) translate(-416.785680, -412.418570) " x="362.903197" y="394.457742" width="107.764967" height="35.9216555"></rect>
                <rect id="Rectangle-path" fill="#8C6239" transform="translate(448.501520, 444.226749) rotate(135.000000) translate(-448.501520, -444.226749) " x="430.540692" y="417.285508" width="35.9216555" height="53.8824833"></rect>
                <polygon id="Shape" fill="#29ABE2" points="480.254 450.576 512 456.925 505.651 501.379 461.197 507.728 454.848 475.982"></polygon>
                <polygon id="Shape" fill="#CCCCCC" points="157.86 102.785 82.289 27.214 31.486 27.214 31.486 78.017 112.311 158.842 340.956 387.478 378.648 425.179 429.451 374.375 387.431 332.355"></polygon>
                <polyline id="Shape" fill="#B3B3B3" points="31.486 27.214 82.289 27.214 429.451 374.375 404.045 399.773 367.673 363.401 119.154 114.882 31.486 27.214"></polyline>
                <rect id="Rectangle-path" fill="#999999" x="31.486" y="27.214" width="50.803" height="50.803"></rect>
                <polygon id="Shape" fill="#FBB03B" points="330.09 99.058 363.767 0.272 327.845 0.272 300.903 36.194 273.961 0.272 238.039 0.272 211.097 36.194 184.155 0.272 148.233 0.272 181.91 99.058"></polygon>
                <path d="M325.222,396.728 L256,431.339 L186.778,396.728 C141.139,373.908 112.311,327.263 112.311,276.236 L112.311,117.019 L256,72.117 L399.689,117.02 L399.689,276.236 C399.689,327.263 370.861,373.909 325.222,396.728 Z" id="Shape" fill="#0071BC"></path>
                <polygon id="Shape" fill="#E6E6E6" points="256 108.039 148.233 143.961 148.233 242.747 256 242.747"></polygon>
                <polygon id="Shape" fill="#E6E6E6" points="363.767 242.747 363.767 143.961 256 108.039 256 242.747"></polygon>
                <path d="M256,242.747 L256,386.436 L314.122,357.375 C344.548,342.162 363.767,311.071 363.767,277.053 L363.767,242.747 L256,242.747 Z" id="Shape" fill="#E6E6E6"></path>
                <path d="M148.233,242.747 L148.233,277.053 C148.233,311.071 167.451,342.162 197.878,357.375 L256,386.436 L256,242.747 L148.233,242.747 Z" id="Shape" fill="#E6E6E6"></path>
                <g id="Group" transform="translate(67.000000, 179.000000)" fill="#B3B3B3">
                    <rect id="Rectangle-path" x="0.408" y="0.883" width="17.961" height="17.961"></rect>
                    <rect id="Rectangle-path" x="0.408" y="36.779" width="17.961" height="98.786"></rect>
                    <rect id="Rectangle-path" x="359.667" y="117.604" width="17.961" height="17.961"></rect>
                    <rect id="Rectangle-path" x="359.667" y="0.883" width="17.961" height="98.786"></rect>
                </g>
                <rect id="Rectangle-path" fill="#F15A24" x="247.019" y="27.214" width="17.961" height="17.961"></rect>
            </g>
            <g id="twitter-(1)" transform="translate(167.000000, 170.000000)" fill="#03A9F4">
                <path d="M179,17.2841538 C172.343438,20.2153846 165.250563,22.1583077 157.855625,23.1016923 C165.463125,18.542 171.269438,11.3767692 173.999188,2.74030769 C166.906313,6.98553846 159.075063,9.98415385 150.729187,11.6575385 C143.994313,4.45861538 134.395438,0 123.923938,0 C103.607438,0 87.2513125,16.5541538 87.2513125,36.8481538 C87.2513125,39.7681538 87.4974375,42.5758462 88.1015625,45.2487692 C57.59325,43.7550769 30.5978125,29.0764615 12.462875,6.716 C9.2968125,12.2303077 7.4396875,18.542 7.4396875,25.3366154 C7.4396875,38.0947692 13.984375,49.4041538 23.739875,55.9516923 C17.8440625,55.8393846 12.060125,54.1210769 7.16,51.4144615 C7.16,51.5267692 7.16,51.6727692 7.16,51.8187692 C7.16,69.7206154 19.8801875,84.5901538 36.56075,88.0155385 C33.5736875,88.8353846 30.318125,89.2284615 26.9395,89.2284615 C24.590125,89.2284615 22.218375,89.0936923 19.9920625,88.5995385 C24.74675,103.188308 38.238875,113.913692 54.28175,114.261846 C41.7965,124.066308 25.9438125,129.973692 8.7821875,129.973692 C5.77275,129.973692 2.886375,129.838923 0,129.468308 C16.2554375,139.991538 35.5203125,146 56.2955,146 C123.82325,146 160.742,89.8461538 160.742,41.172 C160.742,39.5435385 160.686063,37.9712308 160.60775,36.4101538 C167.890813,31.2215385 174.010375,24.7413846 179,17.2841538 Z" id="Shape"></path>
            </g>
        </g>
    </g>
</svg>